HIERARCHY
ROOT Hips
{
	OFFSET 0.00000 0.00000 0.00000
	CHANNELS 6 Xposition Yposition Zposition Zrotation Yrotation Xrotation 
	JOINT LHipJoint
	{
		OFFSET 0 0 0
		CHANNELS 3 Zrotation Yrotation Xrotation
		JOINT LeftHip
		{
			OFFSET 1.53139 -1.83434 0.76626
			CHANNELS 3 Zrotation Yrotation Xrotation
			JOINT LeftKnee
			{
				OFFSET 2.56112 -7.03663 0.00000
				CHANNELS 3 Zrotation Yrotation Xrotation
				JOINT LeftAnkle
				{
					OFFSET 2.59983 -7.14299 0.00000
					CHANNELS 3 Zrotation Yrotation Xrotation
					JOINT LeftToe
					{
						OFFSET 0.13742 -0.37757 2.00054
						CHANNELS 3 Zrotation Yrotation Xrotation
						End Site
						{
							OFFSET 0.00000 -0.00000 1.02897
						}
					}
				}
			}
		}
	}
	JOINT RHipJoint
	{
		OFFSET 0 0 0
		CHANNELS 3 Zrotation Yrotation Xrotation
		JOINT RightHip
		{
			OFFSET -1.40122 -1.83435 0.76627
			CHANNELS 3 Zrotation Yrotation Xrotation
			JOINT RightKnee
			{
				OFFSET -2.54052 -6.98003 0.00000
				CHANNELS 3 Zrotation Yrotation Xrotation
				JOINT RightAnkle
				{
					OFFSET -2.63179 -7.23079 0.00000
					CHANNELS 3 Zrotation Yrotation Xrotation
					JOINT RightToe
					{
						OFFSET -0.24131 -0.66299 2.03908
						CHANNELS 3 Zrotation Yrotation Xrotation
						End Site
						{
							OFFSET -0.00000 -0.00000 1.07391
						}
					}
				}
			}
		}
	}
	JOINT lowerback
	{
		OFFSET 0 0 0
		CHANNELS 3 Zrotation Yrotation Xrotation
		JOINT Chest
		{
			OFFSET 0.01174 2.10302 -0.29778
			CHANNELS 3 Zrotation Yrotation Xrotation
			JOINT Chest2
			{
				OFFSET 0.00772 2.13227 -0.01247
				CHANNELS 3 Zrotation Yrotation Xrotation
				JOINT lowerneck
				{
					OFFSET 0 0 0
					CHANNELS 3 Zrotation Yrotation Xrotation
					JOINT Neck
					{
						OFFSET -0.09219 1.60848 0.31481
						CHANNELS 3 Zrotation Yrotation Xrotation
						JOINT Head
						{
							OFFSET 0.13974 1.65456 -0.31134
							CHANNELS 3 Zrotation Yrotation Xrotation
							End Site
							{
								OFFSET 0.04742 1.69515 -0.14578
							}
						}
					}
				}
				JOINT LeftCollar
				{
					OFFSET 0 0 0
					CHANNELS 3 Zrotation Yrotation Xrotation
					JOINT LeftShoulder
					{
						OFFSET 3.24909 1.02882 -0.23993
CHANNELS 3 Zrotation Xrotation Yrotation
						JOINT LeftElbow
						{
OFFSET 0 -5.329550 -0.000000
CHANNELS 3 Zrotation Xrotation Yrotation
							JOINT LeftWrist
							{
OFFSET 0 -3.692320 -0.000000
CHANNELS 3 Zrotation Xrotation Yrotation
								JOINT lhand
								{
									OFFSET 0 0 0
CHANNELS 3 Zrotation Xrotation Yrotation
									JOINT LFingers
									{
OFFSET 0 -0.536600 -0.000000
CHANNELS 3 Zrotation Xrotation Yrotation
										End Site
										{
OFFSET 0 -0.432620 -0.000000
										}
									}
								}
								JOINT LThumb
								{
OFFSET 0 0.000000 0.000000
CHANNELS 3 Zrotation Xrotation Yrotation
									End Site
									{
OFFSET 0 -0.439220 0.439220
									}
								}
							}
						}
					}
				}
				JOINT RightCollar
				{
					OFFSET 0 0 0
					CHANNELS 3 Zrotation Yrotation Xrotation
					JOINT RightShoulder
					{
						OFFSET -3.21387 0.93002 -0.34594
CHANNELS 3 Zrotation Xrotation Yrotation
						JOINT RightElbow
						{
OFFSET 0 -5.234310 0.000000
CHANNELS 3 Zrotation Xrotation Yrotation
							JOINT RightWrist
							{
OFFSET 0 -3.553010 -0.000000
CHANNELS 3 Zrotation Xrotation Yrotation
								JOINT rhand
								{
									OFFSET 0 0 0
CHANNELS 3 Zrotation Xrotation Yrotation
									JOINT RFingers
									{
OFFSET 0 -0.772520 -0.000000
CHANNELS 3 Zrotation Xrotation Yrotation
										End Site
										{
OFFSET 0 -0.622830 -0.000000
										}
									}
								}
								JOINT RThumb
								{
OFFSET 0 0.000000 0.000000
CHANNELS 3 Zrotation Xrotation Yrotation
									End Site
									{
OFFSET 0 -0.632340 0.632340
									}
								}
							}
						}
					}
				}
			}
		}
	}
}
MOTION
Frames: 4
Frame Time: 0.008333333333333333
15.947300 17.884800 -11.533600 1.959000 -30.646300 1.285500 0.000000 0.000000 0.000000 -22.416000 -4.813300 -6.221200 1.724900 8.268000 23.531000 0.599200 -1.840000 -14.108000 0.544800 -4.728700 -13.136200 0.000000 0.000000 0.000000 23.750200 1.499500 -8.324900 -2.566500 -9.957800 28.840100 -1.223700 0.299900 -20.825300 -0.141600 -2.425600 6.683300 -1.841500 0.012300 6.837700 0.103500 -0.129300 -0.105700 1.154900 -0.027800 -3.941100 -12.153800 -6.228200 -17.587600 7.510100 -7.280000 22.886700 3.654100 -3.528800 11.056200 -0.000000 0.000000 0.000000 1.327900 6.553800 -19.712600 18.185100 -28.393600 4.636900 19.477400 16.333000 -26.163400 0.000000 0.000000 0.000000 -7.125000 0.000000 0.000000 -11.544200 57.129000 3.461700 -0.000000 0.000000 0.000000 -1.564900 3.718600 17.002000 -15.338400 -24.615500 -3.365600 -13.416400 4.613300 -10.805600 0.000000 0.000000 0.000000 7.125000 0.000000 -0.000000 9.627500 18.962400 6.062500
15.906964 17.871330 -11.537539 1.686542 -30.884073 1.149661 0.000000 0.000000 0.000000 -22.063544 -4.910155 -6.209036 1.842850 8.530833 24.338414 0.624075 -1.504431 -14.484304 0.642252 -5.126867 -14.270687 0.000000 0.000000 0.000000 24.229049 1.717132 -7.726048 -2.522984 -9.879546 28.587598 -1.219273 0.073857 -20.861797 -0.176511 -2.706344 7.462176 -1.520590 0.166124 7.027943 0.214567 0.103550 0.191694 1.065822 0.078644 -3.746902 -12.235355 -6.106380 -17.364902 7.158743 -7.016400 22.912969 3.583829 -3.462211 10.983665 0.000000 0.000000 0.000000 1.277205 6.589274 -19.449773 18.253917 -28.480981 4.669653 18.852715 15.462510 -26.478919 0.000000 0.000000 0.000000 -7.125000 0.000000 0.000000 -12.368903 57.310159 3.768540 0.000000 0.000000 0.000000 -1.683793 3.943557 15.907365 -14.768228 -23.822194 -3.131706 -13.283256 5.332989 -11.662787 0.000000 0.000000 0.000000 7.125000 0.000000 0.000000 9.699171 18.104098 6.296388
15.860564 17.866071 -11.542114 1.542171 -30.273874 1.151303 0.000000 0.000000 0.000000 -21.785967 -5.400894 -6.469369 1.975019 8.813787 25.214488 0.624229 -1.496430 -14.487707 0.799524 -5.706788 -15.935967 0.000000 0.000000 0.000000 24.596620 1.478162 -7.592188 -2.504071 -9.845396 28.477446 -1.198675 -0.351268 -20.831574 -0.181621 -2.744923 7.569367 -1.399029 0.019493 7.372259 0.297734 -0.083785 0.243760 1.103323 -0.015178 -3.880504 -12.249858 -5.904812 -16.927251 6.978575 -6.753586 23.188365 3.573028 -3.379736 10.965901 0.000000 0.000000 0.000000 1.610181 6.994989 -19.441453 18.563789 -28.872957 4.818371 18.900780 15.089233 -25.943732 0.000000 0.000000 0.000000 -7.125000 0.000000 0.000000 -12.038994 56.786750 3.513141 0.000000 0.000000 0.000000 -1.543009 4.124883 15.858768 -14.886235 -23.987393 -3.179547 -13.207729 5.347890 -11.427130 0.000000 0.000000 0.000000 7.125000 0.000000 0.000000 9.757570 18.346381 6.282034
15.812266 17.859029 -11.547013 1.264569 -29.732386 1.184525 0.000000 0.000000 0.000000 -21.380530 -6.439715 -7.238396 2.328732 9.519311 27.434008 0.639900 -1.228516 -14.741232 0.880615 -5.981925 -16.732148 0.000000 0.000000 0.000000 25.036852 0.791818 -7.289129 -2.405845 -9.664710 27.897614 -1.212765 -0.284429 -20.929972 -0.201920 -2.893369 7.982013 -1.171296 -0.051283 7.832307 0.444278 -0.158408 0.283669 1.136665 -0.053993 -4.095147 -12.023346 -5.451272 -16.623039 6.435269 -6.102950 23.826677 3.451115 -3.145496 11.045299 0.000000 0.000000 0.000000 1.930208 7.013661 -19.563563 18.767426 -29.128713 4.917128 19.152459 14.860257 -26.186018 0.000000 0.000000 0.000000 -7.125000 0.000000 0.000000 -11.898762 57.082180 3.556533 0.000000 0.000000 0.000000 -1.521736 4.133649 16.501398 -15.267854 -24.517906 -3.336288 -13.468530 4.955233 -11.113221 0.000000 0.000000 0.000000 7.125000 0.000000 0.000000 9.582968 18.648309 6.101406
